<svg width="170" height="44" viewBox="0 0 170 44" fill="none" xmlns="http://www.w3.org/2000/svg">
    <path d="M99.1637 22.5461C102.507 23.0238 104.895 23.6606 104.895 26.5796C104.895 29.127 102.613 30.7192 98.2614 30.7192C94.0688 30.7192 91.5744 29.2862 91.4683 26.155H86.3203C86.4795 31.0376 90.6722 34.6465 98.2614 34.6465C105.638 34.6465 109.937 31.2499 109.937 26.155C109.937 20.211 105.585 18.4065 100.119 17.6104L97.5715 17.2389C94.0688 16.7082 91.8928 15.8591 91.8928 13.1524C91.8928 11.0296 93.7503 9.33127 98.1553 9.33127C102.242 9.33127 104.312 11.0296 104.418 13.4178H109.406C109.194 9.64969 105.851 5.45703 98.2614 5.45703C90.8845 5.45703 86.851 8.85362 86.851 13.577C86.851 18.8842 90.9906 21.3255 96.6693 22.1746L99.1637 22.5461Z" fill="black"/>
    <path d="M118.348 6.25311H113.253V33.8504H118.348V18.1942C118.348 12.6217 121.798 9.70277 126.044 9.70277C130.502 9.70277 132.359 12.091 132.359 16.6021V33.8504H137.454V16.0714C137.454 9.17205 133.739 5.45703 127.37 5.45703C123.655 5.45703 120.206 7.04918 118.348 9.96813V6.25311Z" fill="black"/>
    <path d="M147.096 20.0517C147.096 14.4792 150.015 9.70277 155.588 9.70277C161.16 9.70277 164.079 14.2139 164.079 20.0517C164.079 25.8896 161.16 30.4007 155.588 30.4007C150.015 30.4007 147.096 25.6243 147.096 20.0517ZM147.361 6.25311H142.267V43.4033H147.361V30.1354C148.954 32.7889 152.138 34.6465 156.384 34.6465C164.663 34.6465 169.174 28.0125 169.174 20.0517C169.174 12.091 164.663 5.45703 156.384 5.45703C152.138 5.45703 148.954 7.31454 147.361 9.96813V6.25311Z" fill="black"/>
    <path d="M53.0297 36.3589C63.1317 36.3589 71.3211 28.2197 71.3211 18.1794C71.3211 8.13921 63.1317 0 53.0297 0C42.9276 0 34.7383 8.13921 34.7383 18.1794C34.7383 28.2197 42.9276 36.3589 53.0297 36.3589Z" fill="black"/>
    <path d="M34.0454 0.847656H0.687647C0.30787 0.847656 0 1.15364 0 1.53109V34.6847C0 35.0621 0.30787 35.3681 0.687647 35.3681H34.0454C34.4252 35.3681 34.733 35.0621 34.733 34.6847V1.53109C34.733 1.15364 34.4252 0.847656 34.0454 0.847656Z" fill="black"/>
</svg>
